{"title":"Suits S05E04 1080p WEB-DL ReEnc DD5 1 HEVC x265-DTG","uid":12132431,"size":551098875,"categoryP":"video","categoryS":"hd___tv_shows","magnet":"?xt=urn:btih:dec37e785530321f05504c2753a0dd63653992ea&amp;dn=Suits+S05E04+1080p+WEB-DL+ReEnc+DD5+1+HEVC+x265-DTG&amp;tr=udp%3A%2F%2Ftracker.openbittorrent.com%3A80&amp;tr=udp%3A%2F%2Fopen.demonii.com%3A1337&amp;tr=udp%3A%2F%2Ftracker.coppersurfer.tk%3A6969&amp;tr=udp%3A%2F%2Fexodus.desync.com%3A6969","seeders":0,"leechers":1,"uploader":"D3tergent","files":1,"time":1437074620,"description":"Suits - S05E04 - No Puedo Hacerlo\n\n\nVideo : HEVC, 1920x1080\nAudio : AC3, 5.1, 384 kb/s\nSubtitles : English\n\nSource : Suits.S05E04.No.Puedo.Hacerlo.1080p.WEB-DL.DD5.1.H.264-S\n\nIf you have trouble playing this file, get MPC-HC (recommended) or the latest VLC.\n\nFormat : Matroska\nFormat version : Version 4 / Version 2\nFile size : 526 MiB\nDuration : 43mn 6s\nOverall bit rate : 1 705 Kbps\nEncoded date : UTC 2015-07-16 17:14:52\nWriting application : mkvmerge v7.8.0 ('River Man') 64bit built on May 4 2015 21:19:49\nWriting library : Lavf56.36.100\n\nVideo\nID : 1\nFormat : HEVC\nFormat/Info : High Efficiency Video Coding\nCodec ID : V_MPEGH/ISO/HEVC\nDuration : 43mn 6s\nBit rate : 1 287 Kbps\nWidth : 1 920 pixels\nHeight : 1 080 pixels\nDisplay aspect ratio : 16:9\nFrame rate mode : Constant\nFrame rate : 23.976 fps\nBits/(Pixel*Frame) : 0.026\nStream size : 397 MiB (75%)\nWriting library : Lavc56.41.100 libx265\nLanguage : English\nDefault : Yes\nForced : No\n_STATISTICS_WRITING_APP : mkvmerge v8.0.0 ('Til The Day That I Die') 64bit\n_STATISTICS_WRITING_DATE_UTC : 2015-07-16 09:43:45\n_STATISTICS_TAGS : BPS DURATION NUMBER_OF_FRAMES NUMBER_OF_BYTES\nDURATION : 00:43:06.084000000\nNUMBER_OF_FRAMES : 62004\nNUMBER_OF_BYTES : 426337333\n\nAudio\nID : 2\nFormat : AC-3\nFormat/Info : Audio Coding 3\nMode extension : CM (complete main)\nFormat settings, Endianness : Big\nCodec ID : A_AC3\nDuration : 43mn 6s\nBit rate mode : Constant\nBit rate : 384 Kbps\nChannel(s) : 6 channels\nChannel positions : Front: L C R, Side: L R, LFE\nSampling rate : 48.0 KHz\nBit depth : 16 bits\nCompression mode : Lossy\nStream size : 118 MiB (23%)\nLanguage : English\nDefault : Yes\nForced : No\n_STATISTICS_WRITING_APP : mkvmerge v8.0.0 ('Til The Day That I Die') 64bit\n_STATISTICS_WRITING_DATE_UTC : 2015-07-16 09:43:45\n_STATISTICS_TAGS : BPS DURATION NUMBER_OF_FRAMES NUMBER_OF_BYTES\nDURATION : 00:43:06.016000000\nNUMBER_OF_FRAMES : 80813\nNUMBER_OF_BYTES : 124128768\n\nText\nID : 3\nFormat : UTF-8\nCodec ID : S_TEXT/UTF8\nCodec ID/Info : UTF-8 Plain Text\nTitle : CC\nLanguage : English\nDefault : No\nForced : No\n_STATISTICS_WRITING_APP : mkvmerge v8.0.0 ('Til The Day That I Die') 64bit\n_STATISTICS_WRITING_DATE_UTC : 2015-07-16 09:43:45\n_STATISTICS_TAGS : BPS DURATION NUMBER_OF_FRAMES NUMBER_OF_BYTES\nDURATION : 00:42:07.857000000\nNUMBER_OF_FRAMES : 1031\nNUMBER_OF_BYTES : 36456","torrent":{"xt":"urn:btih:dec37e785530321f05504c2753a0dd63653992ea","amp;dn":"Suits+S05E04+1080p+WEB-DL+ReEnc+DD5+1+HEVC+x265-DTG","amp;tr":["udp%3A%2F%2Ftracker.openbittorrent.com%3A80","udp%3A%2F%2Fopen.demonii.com%3A1337","udp%3A%2F%2Ftracker.coppersurfer.tk%3A6969","udp%3A%2F%2Fexodus.desync.com%3A6969"],"infoHash":"dec37e785530321f05504c2753a0dd63653992ea","infoHashBuffer":{"type":"Buffer","data":[222,195,126,120,85,48,50,31,5,80,76,39,83,160,221,99,101,57,146,234]},"announce":[],"urlList":[]}}